<?xml version="1.0" encoding="UTF-8" standalone="no"?>
<!-- Created with Inkscape (http://www.inkscape.org/) -->

<svg
   width="800"
   height="800"
   viewBox="0 0 211.66667 211.66667"
   version="1.1"
   id="svg1"
   xml:space="preserve"
   inkscape:version="1.3 (0e150ed, 2023-07-21)"
   sodipodi:docname="flag-uk.svg"
   xmlns:inkscape="http://www.inkscape.org/namespaces/inkscape"
   xmlns:sodipodi="http://sodipodi.sourceforge.net/DTD/sodipodi-0.dtd"
   xmlns="http://www.w3.org/2000/svg"
   xmlns:svg="http://www.w3.org/2000/svg"><sodipodi:namedview
     id="namedview1"
     pagecolor="#ffffff"
     bordercolor="#000000"
     borderopacity="0.25"
     inkscape:showpageshadow="2"
     inkscape:pageopacity="0.0"
     inkscape:pagecheckerboard="0"
     inkscape:deskcolor="#d1d1d1"
     inkscape:document-units="mm"
     inkscape:zoom="0.2102413"
     inkscape:cx="397.16269"
     inkscape:cy="561.25984"
     inkscape:window-width="1688"
     inkscape:window-height="757"
     inkscape:window-x="0"
     inkscape:window-y="25"
     inkscape:window-maximized="0"
     inkscape:current-layer="layer1" /><defs
     id="defs1" /><g
     inkscape:label="Layer 1"
     inkscape:groupmode="layer"
     id="layer1"><g
       id="g3"
       transform="matrix(0.34941951,0,0,0.34941951,65.385068,56.29737)"><ellipse
         style="fill:#ffffff;stroke-width:0.247136;-inkscape-stroke:none"
         id="path3"
         cx="115.1504"
         cy="152.27544"
         rx="269.94281"
         ry="270.57205" /><g
         id="g1"
         transform="translate(8.8093231,3.7754264)"><path
           style="fill:#0051b3"
           d="m 29.940964,408.83326 c -26.6806631,-7.62935 -52.957892,-19.93582 -76.46458,-35.8108 -5.063808,-3.41979 -13.229166,-9.36426 -13.229166,-9.63098 0,-0.30721 93.895288,-94.09689 94.048978,-93.9432 0.07902,0.079 0.113681,31.75384 0.07703,70.3885 l -0.06664,70.24483 z M 175.72637,339.58113 v -70.56324 l 47.16198,47.17572 47.16198,47.17572 -0.79375,0.64833 c -4.25164,3.4727 -17.74125,12.61732 -25.06415,16.99102 -21.15937,12.63772 -41.75418,21.46079 -67.07699,28.73659 l -1.38907,0.39911 z m -288.18961,-29.61916 c -10.44331,-14.17626 -18.8046,-27.93687 -26.13769,-43.01614 -6.64952,-13.67361 -12.52167,-28.92032 -16.62731,-43.17188 l -1.29578,-4.49791 70.257348,-0.0666 c 38.641542,-0.0366 70.322,-0.002 70.401017,0.077 0.151497,0.1515 -93.633675,94.04898 -93.936485,94.04898 -0.0968,0 -1.29428,-1.51805 -2.6611,-3.37344 z m 385.30258,-43.57922 c -25.82366,-25.82396 -46.88745,-47.0173 -46.80843,-47.09632 0.079,-0.079 31.75947,-0.11368 70.40101,-0.077 l 70.25735,0.0666 -1.29186,4.45882 c -6.51557,22.4882 -16.05181,44.33044 -28.0875,64.33284 -2.67646,4.44808 -8.14781,12.85568 -10.58912,16.27188 -3.35269,4.69151 -6.58405,8.99583 -6.75339,8.99583 -0.0968,0 -21.30441,-21.1287 -47.12806,-46.95266 z M -156.46369,77.525525 c 0.0605,-0.181901 0.76508,-2.592917 1.56576,-5.357813 6.14991,-21.236648 15.70201,-43.084924 27.35745,-62.5739547 4.53344,-7.5803517 13.05503,-20.1709833 17.03579,-25.1703523 l 0.70954,-0.891105 46.9816,46.96326 c 25.83988,25.829793 46.981599,47.052682 46.981599,47.161977 0,0.109294 -31.666886,0.198717 -70.370859,0.198717 -56.17895,0 -70.34868,-0.0667 -70.26088,-0.330729 z m 382.46089,0.132012 c 0,-0.109295 21.13986,-21.332184 46.97746,-47.161977 l 46.97747,-46.96326 0.64824,0.79375 c 1.33683,1.636907 6.0454,8.2101754 8.95014,12.4946055 10.5952,15.6276825 19.63914,32.5977655 26.79507,50.2783485 3.38646,8.367105 6.72464,18.028684 9.07621,26.26892 0.60065,2.104779 1.14273,3.9757 1.20461,4.157601 0.0898,0.264036 -14.07803,0.330729 -70.25834,0.330729 -38.70397,0 -70.37086,-0.08942 -70.37086,-0.198717 z M -12.855668,-19.312249 c -25.793412,-25.79372 -46.897114,-46.971117 -46.897114,-47.060882 0,-0.08977 1.279922,-1.111778 2.844271,-2.271139 14.1084,-10.455936 26.9774,-18.335177 42.267185,-25.878728 14.84622086,-7.324712 30.625125,-13.429782 45.309894,-17.531002 l 3.770312,-1.05299 v 70.346204 c 0,38.6904151 -0.08942,70.346209 -0.198717,70.346209 -0.109294,0 -21.302418,-21.1039524 -47.095831,-46.897672 z M 175.72637,-42.785436 c 0,-56.180308 0.0667,-70.348174 0.33073,-70.258344 0.1819,0.0619 2.05714,0.60431 4.16719,1.20539 21.70929,6.18417 44.1901,15.952611 63.76458,27.70721 7.73064,4.642299 20.19665,13.083537 25.17035,17.043861 l 0.89111,0.709544 -46.96326,46.981599 c -25.8298,25.8398794 -47.05269,46.981599 -47.16198,46.981599 -0.10929,0 -0.19872,-31.6668866 -0.19872,-70.370859 z"
           id="path2" /><path
           style="fill:#d70026"
           d="M 95.160752,419.27547 C 84.981177,418.76129 72.892291,417.7403 70.223774,417.16936 l -0.595312,-0.12737 V 300.49808 183.95416 H -46.91545 -163.45936 l -0.12737,-0.59531 c -0.0701,-0.32742 -0.24939,-1.66687 -0.39853,-2.97656 -2.07245,-18.20001 -2.3926,-37.0704 -0.92245,-54.37187 0.4352,-5.12164 1.10746,-11.4468 1.31464,-12.36927 l 0.13371,-0.59531 H -46.91545 69.628462 V -3.4980762 -120.04199 l 0.595312,-0.12737 c 1.648907,-0.35279 11.15446,-1.27921 18.322395,-1.78572 6.26579,-0.44276 26.834651,-0.44146 33.072911,0.002 7.71773,0.54874 16.54575,1.40876 18.3224,1.78495 l 0.59531,0.12605 V -3.4980762 113.04584 H 257.0807 373.62461 l 0.12737,0.59531 c 0.35403,1.65466 1.28199,11.18365 1.7843,18.32239 0.43878,6.23597 0.43878,26.83695 0,33.07292 -0.50231,7.13874 -1.43027,16.66773 -1.7843,18.32239 l -0.12737,0.59531 H 257.0807 140.53679 v 116.54392 116.54391 l -0.59531,0.12737 c -1.55207,0.33207 -9.46351,1.12597 -16.07344,1.61295 -5.05025,0.37207 -24.492234,0.70606 -28.707288,0.49316 z M -71.394544,354.03156 c -2.995449,-2.53271 -7.282828,-6.44206 -11.625391,-10.60035 l -3.555695,-3.40481 60.3086,-60.30904 c 33.1697299,-33.16996 60.397995,-60.30903 60.507255,-60.30903 0.10926,0 0.198655,7.41175 0.198655,16.47056 v 16.47057 l -51.792281,51.79177 -51.792281,51.79178 z m 307.644134,-74.2323 c -33.14225,-33.14249 -60.25863,-60.34827 -60.25863,-60.45729 0,-0.10902 7.41175,-0.19822 16.47056,-0.19822 h 16.47057 l 51.80434,51.80485 51.80435,51.80485 -1.91804,2.23629 c -3.67347,4.28301 -13.70571,15.06858 -14.01609,15.06858 -0.0541,0 -27.21481,-27.11658 -60.35706,-60.25906 z M -50.571178,26.051403 l -51.804342,-51.804851 1.91803,-2.236292 c 2.689848,-3.136171 6.623315,-7.446224 10.603761,-11.618951 l 3.397695,-3.561826 60.315165,60.31473 c 33.1733413,33.173102 60.315166,60.404125 60.315166,60.513386 0,0.10926 -7.411754,0.198655 -16.470565,0.198655 H 1.2331672 Z M 175.72637,61.121106 V 44.650541 l 51.80485,-51.8043454 51.80485,-51.8043456 2.2363,1.915951 c 3.36147,2.879957 7.36895,6.534312 11.48514,10.473109 l 3.6926,3.533467 -60.31322,60.313647 c -33.17226,33.172505 -60.4026,60.313646 -60.51186,60.313646 -0.10926,0 -0.19866,-7.411754 -0.19866,-16.470564 z"
           id="path1" /></g></g></g></svg>
